<?xml version="1.0" encoding="UTF-8"?>
<svg id="katman_1" data-name="katman 1" xmlns="http://www.w3.org/2000/svg" version="1.1" viewBox="0 0 841.89 595.28">
  <defs>
    <style>
      .cls-1 {
        fill-rule: evenodd;
      }

      .cls-1, .cls-2 {
        fill: #0e1c2f;
        stroke-width: 0px;
      }
    </style>
  </defs>
  <path class="cls-1" d="M255.78,317.71c-1.16-.29-2.12-.58-2.99-.96-.62-.27-1.13-.6-1.59-.97-.35-.28-.5-.74-.46-1.19.45-4.81-.05-9.06.41-13.84,1.93-19.46,14.16-13.3,25.15-16.48,6.25-1.76,12.49-5.21,14.85-11.96.44-1.25.06-2.61-.81-3.6-7.16-8.12-15.08-15.29-23.68-21.45-28.93-20.6-66.51-29.19-101.06-24.26-1.46.21-2.22,1.82-1.42,3.06,4.24,6.52,9.77,11.9,16.09,15.92,1.33.85.79,2.62-.75,2.25-3.13-.76-7-2.16-10.67-4.73-.42-.3-.96-.37-1.44-.18-1.68.67-4.03,1.61-6.04,2.47-1.34.58-1.62,2.3-.51,3.26,17.23,14.76,42.09,17.08,61.74,5.44,1.35-.8,3.55.91,3.13,2.42-.58,2.11-1.25,4.92-1.95,8.62-4.91,24.86-19.08,22.93-36.62,16.67-34.88-12.64-54.74-1.95-72.35-23.03-1.38-1.65-3.78-2.23-5.37-.79-3.48,3.15-5.53,7.65-5.53,12.45,0,5.79,2.96,10.76,7.37,13.76.62.42,1.44.24,1.91-.34.89-1.12,1.65-1.92,2.52-2.48,1.28-.83,1.95,1.06.85,2.11-3.42,3.25-4.51,7.2-6.87,14.71-3.85,12.24-2.22,24.76-20.24,28.04-9.54.48-9.35,6.94-12.82,16.57-3.99,11.53-9.2,16.69-18.79,26.67-1.48,1.54-1.62,4.02.04,5.37,3.81,3.09,7.73,3.22,11.72,1.58,10.12-4.24,17.92-17.34,25.25-25.82,8.19-9.44,27.85-5.4,42.69-14.65,7.72-4.73,12.46-10.73,11.41-19.57-.2-1.69,1.72-2.67,2.36-1.1.95,2.34,1.59,4.8,1.89,7.33.1.85.86,1.48,1.72,1.44,15.93-.77,36.46,16.6,55.69,21.51,1.31.33,2.25-1.18,1.52-2.31-1.14-1.77-2.11-3.6-2.89-5.47-.7-1.69-1.27-3.33-1.7-4.93-.45-1.66,1.99-2.15,2.87-.67,5.14,8.61,14.86,16.48,28.22,17.45,4.72.39,9.92-.19,15.32-1.83,6.46-1.93,12.43-4.43,19.56-3.08,5.3.96,10.21,3.66,13.3,8.19,4.29,6.26,13.31,7.95,18.21,1.54.75-.98.81-2.32.32-3.46-10.77-24.95-37.89-26.68-49.56-29.69Z"/>
  <path class="cls-2" d="M403.9,263.02c.34-1.88,1.9-3.3,3.8-3.46l12.7-1.08c.34-.03.68.06.96.24.51.33.77.94.67,1.54l-13.02,72.56c-.36,2.02-2.11,3.48-4.16,3.48h-9.49c-.88,0-1.55-.79-1.4-1.66.23-1.34-1.43-2.27-2.54-1.49-4.33,3.03-9.1,4.55-14.3,4.55-7.21,0-13.17-2.58-17.89-7.75-4.76-5.17-7.14-11.46-7.14-18.9,0-9.51,2.94-17.43,8.81-23.75,5.87-6.32,13.34-9.48,22.41-9.48,5.3,0,9.8,1.34,13.5,4.03,1.41,1.02,3.61.36,3.93-1.35l3.18-17.49ZM381.9,322.82c4.46,0,8.12-1.6,10.98-4.79,2.79-3.2,4.18-7.12,4.18-11.76,0-4.05-1.13-7.32-3.4-9.81-2.27-2.49-5.24-3.73-8.92-3.73-4.5,0-8.14,1.6-10.93,4.79-2.82,3.16-4.24,7.08-4.24,11.76,0,4.01,1.15,7.28,3.46,9.81,2.27,2.49,5.22,3.73,8.86,3.73Z"/>
  <path class="cls-2" d="M441.24,270.09c-2.64,0-4.92-.93-6.86-2.79-1.9-1.86-2.84-4.12-2.84-6.8,0-3.38,1.25-6.26,3.73-8.64,2.42-2.38,5.33-3.57,8.75-3.57,2.6,0,4.85.97,6.75,2.9,1.9,1.97,2.84,4.24,2.84,6.8,0,3.34-1.23,6.19-3.68,8.53-2.42,2.38-5.31,3.57-8.7,3.57ZM439.47,332.83c-.36,2.01-2.12,3.48-4.16,3.48h-8.97c-2.63,0-4.63-2.38-4.16-4.98l8.74-48.62c.36-2.01,2.11-3.48,4.16-3.48h9.02c2.64,0,4.63,2.39,4.16,4.98l-8.78,48.62Z"/>
  <path class="cls-2" d="M501.03,279.5c.43.18.77.53.94.96.19.46.17.97-.03,1.42l-5.2,11.36c-.17.38-.47.7-.85.89-.58.3-1.26.27-1.85,0-1.8-.85-3.78-1.25-5.94-1.19-4.68,0-8.29,1.9-10.81,5.69-.93,1.45-1.93,4.83-3.01,10.15l-4.18,24.03c-.35,2.02-2.11,3.5-4.17,3.5h-9.06c-2.63,0-4.63-2.38-4.16-4.98l8.74-48.62c.36-2.01,2.11-3.48,4.16-3.48h8.04c1.58,0,2.79,1.42,2.52,2.99-.22,1.3,1.57,2.15,2.56,1.28.89-.79,1.81-1.49,2.75-2.09,3.49-2.3,7.23-3.49,11.2-3.57,2.88,0,5.67.55,8.36,1.66Z"/>
  <path class="cls-2" d="M531.44,277.84c9.1,0,15.96,2.92,20.57,8.75,4.61,5.83,6.08,12.86,4.4,21.07-.06.39-.14.8-.24,1.22-.41,1.71-2.04,2.8-3.8,2.8h-34.32c-2.22,0-4.16,1.74-3.76,3.93.44,2.34,1.49,4.24,3.16,5.72,2.49,2.23,5.74,3.34,9.75,3.34,5.66,0,10.74-1.98,15.25-5.93.27-.24.62-.37.98-.37.42,0,.82.19,1.1.51l5.46,6.46c.33.39.47.9.39,1.4-.06.36-.23.69-.49.94-6.8,6.62-15.2,9.96-25.19,10.03-8.44,0-15.26-2.68-20.46-8.03-5.24-5.31-7.58-12.11-7.02-20.4.22-5.69,1.78-10.85,4.68-15.5,2.82-4.61,6.65-8.29,11.48-11.04,5.5-3.27,11.52-4.91,18.06-4.91ZM518.22,296.24c-1.63,2.32.42,5.12,3.26,5.12h14.98c2.25,0,4.22-1.81,3.61-3.98-.34-1.22-.9-2.32-1.66-3.33-1.86-2.53-4.72-3.77-8.58-3.73-3.46,0-6.43.98-8.92,2.95-1.02.88-1.91,1.86-2.68,2.96Z"/>
  <path class="cls-2" d="M589.66,337.7c-8.17,0-14.85-2.58-20.01-7.75-5.2-5.13-7.81-11.76-7.81-19.9,0-5.31,1.17-10.22,3.51-14.72,2.34-4.53,5.62-8.27,9.81-11.2,6.09-4.2,12.87-6.3,20.35-6.3,9.85,0,17.4,3.27,22.66,9.82.3.38.39.88.27,1.34-.08.32-.27.6-.53.8l-10.23,8.17c-.27.21-.59.32-.93.32-.48,0-.92-.23-1.22-.61-2.63-3.31-6.18-4.97-10.63-4.97s-7.88,1.32-10.71,3.96c-3.27,3.12-4.9,7.25-4.9,12.37,0,4.16,1.19,7.49,3.57,9.98,2.34,2.53,5.48,3.79,9.42,3.79s7.71-1.49,10.87-4.48c.29-.27.66-.43,1.06-.43.42,0,.83.18,1.11.5l7.23,8.07c.33.37.47.86.38,1.35-.06.33-.22.64-.47.88-6.39,6-13.99,9-22.81,9Z"/>
  <path class="cls-2" d="M665.89,288.72c-.36,2.02-2.11,3.5-4.16,3.5h-9.36c-2.05,0-3.8,1.47-4.16,3.48l-3.44,19.15c-.97,5.24.78,7.86,5.24,7.86,1.86,0,3.62-.56,5.31-1.67.44-.29,1.01-.32,1.46-.05.27.17.47.44.55.75l2.45,9.11c.17.64.08,1.31-.24,1.89-.18.33-.44.61-.75.82-4.08,2.76-8.68,4.14-13.8,4.14-6.17,0-11-1.78-14.49-5.35-3.49-3.49-4.65-8.75-3.46-15.78l3.57-19.52c.46-2.52-1.47-4.84-4.03-4.84s-4.48-2.3-4.04-4.81l.82-4.68c.36-2.02,2.11-3.5,4.16-3.5h2.83c2.05,0,3.81-1.47,4.16-3.49l1.88-10.54c.33-1.88,1.89-3.31,3.8-3.47l12.47-1.07c.34-.03.68.06.96.24.51.33.77.94.66,1.54l-2.15,11.81c-.47,2.6,1.52,4.98,4.16,4.98h6.23c2.63,0,4.62,2.37,4.16,4.96l-.79,4.53Z"/>
  <path class="cls-2" d="M706.5,312.9l5.4-30.18c.36-2.02,2.11-3.48,4.16-3.48h8.91c2.63,0,4.63,2.38,4.16,4.97l-8.69,48.62c-.36,2.02-2.11,3.48-4.16,3.48h-9.32c-.91,0-1.6-.82-1.44-1.72.25-1.37-1.44-2.34-2.58-1.55-4.49,3.11-9.29,4.66-14.39,4.66-6.84,0-12-2.25-15.5-6.74-3.5-4.5-4.61-10.48-3.34-17.95l5.45-30.3c.36-2.01,2.11-3.48,4.16-3.48h9.08c2.63,0,4.63,2.38,4.16,4.98l-5.01,27.91c-.52,3.23-.13,5.82,1.17,7.75,1.3,1.9,3.34,2.84,6.13,2.84,3.9,0,6.95-1.45,9.15-4.35,1.15-1.26,1.99-3.08,2.51-5.46Z"/>
  <path class="cls-2" d="M754.3,337.82c-5.65,0-10.66-.99-15.05-2.95-4.22-1.82-7.27-4.16-9.13-7.02-.23-.35-.3-.79-.23-1.2.07-.38.26-.72.54-.98l8.56-7.94c.24-.22.56-.35.89-.35.44,0,.85.23,1.12.58,1.26,1.66,3.22,3.14,5.89,4.43,2.93,1.45,5.87,2.17,8.81,2.17,2.3,0,4.08-.45,5.35-1.34,1.3-.89,1.95-2.12,1.95-3.68,0-.93-.36-1.78-1.06-2.56-.67-.82-1.48-1.47-2.45-1.95-1.26-.59-2.49-1.11-3.68-1.56-2.41-.82-4.52-1.64-6.3-2.45-1.64-.78-3.4-1.82-5.29-3.12-3.79-2.68-5.69-6.41-5.69-11.2,0-5.57,2.27-10.13,6.8-13.66,4.54-3.53,10.5-5.3,17.89-5.3,4.83,0,9.29.84,13.38,2.51,3.75,1.56,6.57,3.66,8.47,6.29.26.36.35.81.27,1.25-.07.39-.27.75-.57,1.01l-8.23,7.28c-.29.26-.66.4-1.05.4-.47,0-.91-.21-1.23-.55-1.47-1.59-3.24-2.86-5.31-3.79-2.3-1.04-4.61-1.56-6.91-1.56-2.01,0-3.61.41-4.79,1.23-1.19.78-1.78,1.82-1.78,3.12,0,.82.35,1.5,1.06,2.06.89.74,1.88,1.34,2.96,1.78.19.07.72.32,1.62.72.93.37,1.78.71,2.57,1,1,.41,1.84.74,2.51,1,4.61,2.08,8.03,4.42,10.26,7.02,2.23,2.56,3.34,5.78,3.34,9.64,0,6.02-2.34,10.8-7.02,14.33-4.68,3.57-10.83,5.35-18.45,5.35Z"/>
</svg>